<svg width="1200" height="520" viewBox="0 0 1200 520" fill="none" xmlns="http://www.w3.org/2000/svg">
  <rect width="1200" height="520" rx="24" fill="#F8F8F8"/>
  <rect x="40" y="40" width="1120" height="440" rx="20" fill="#FFFFFF" stroke="#7B7B7B" stroke-opacity="0.3"/>

  <rect x="90" y="120" width="260" height="280" rx="18" fill="#FFFFFF" stroke="#7B7B7B" stroke-opacity="0.45"/>
  <text x="120" y="144" font-family="Inter, Arial" font-size="12" fill="#222222">Retrieve</text>
  <text x="200" y="144" font-family="Inter, Arial" font-size="12" fill="#7B7B7B">01</text>
  <rect x="120" y="150" width="120" height="12" rx="6" fill="#222222" fill-opacity="0.8"/>
  <rect x="120" y="178" width="200" height="10" rx="5" fill="#7B7B7B" fill-opacity="0.45"/>
  <rect x="120" y="200" width="180" height="10" rx="5" fill="#7B7B7B" fill-opacity="0.35"/>
  <rect x="120" y="248" width="210" height="14" rx="7" fill="#7B7B7B" fill-opacity="0.25"/>
  <rect x="120" y="276" width="170" height="10" rx="5" fill="#7B7B7B" fill-opacity="0.2"/>
  <rect x="120" y="298" width="200" height="10" rx="5" fill="#7B7B7B" fill-opacity="0.2"/>

  <rect x="430" y="100" width="340" height="320" rx="20" fill="#F8F8F8" stroke="#7B7B7B" stroke-opacity="0.4"/>
  <text x="470" y="124" font-family="Inter, Arial" font-size="12" fill="#222222">Rank + Route</text>
  <text x="610" y="124" font-family="Inter, Arial" font-size="12" fill="#7B7B7B">02</text>
  <rect x="470" y="140" width="200" height="12" rx="6" fill="#222222" fill-opacity="0.85"/>
  <rect x="470" y="168" width="250" height="10" rx="5" fill="#7B7B7B" fill-opacity="0.4"/>
  <rect x="470" y="190" width="210" height="10" rx="5" fill="#7B7B7B" fill-opacity="0.3"/>
  <rect x="470" y="230" width="260" height="12" rx="6" fill="#7B7B7B" fill-opacity="0.35"/>
  <rect x="470" y="258" width="230" height="10" rx="5" fill="#7B7B7B" fill-opacity="0.25"/>

  <rect x="840" y="120" width="260" height="280" rx="18" fill="#FFFFFF" stroke="#7B7B7B" stroke-opacity="0.45"/>
  <text x="870" y="144" font-family="Inter, Arial" font-size="12" fill="#222222">Agents</text>
  <text x="940" y="144" font-family="Inter, Arial" font-size="12" fill="#7B7B7B">03</text>
  <rect x="870" y="150" width="140" height="12" rx="6" fill="#222222" fill-opacity="0.8"/>
  <rect x="870" y="178" width="200" height="10" rx="5" fill="#7B7B7B" fill-opacity="0.45"/>
  <rect x="870" y="200" width="170" height="10" rx="5" fill="#7B7B7B" fill-opacity="0.35"/>
  <rect x="870" y="248" width="190" height="14" rx="7" fill="#7B7B7B" fill-opacity="0.25"/>
  <rect x="870" y="276" width="170" height="10" rx="5" fill="#7B7B7B" fill-opacity="0.2"/>
  <rect x="870" y="298" width="200" height="10" rx="5" fill="#7B7B7B" fill-opacity="0.2"/>

  <path d="M350 260H430" stroke="#222222" stroke-opacity="0.5" stroke-width="2" stroke-linecap="round"/>
  <circle cx="390" cy="260" r="3" fill="#222222" fill-opacity="0.6"/>
  <path d="M770 260H840" stroke="#222222" stroke-opacity="0.5" stroke-width="2" stroke-linecap="round"/>
  <circle cx="805" cy="260" r="3" fill="#222222" fill-opacity="0.6"/>
</svg>
