<?xml version="1.0" encoding="UTF-8"?>
<svg version="1.1" xmlns="http://www.w3.org/2000/svg" width="293" height="172">
<path d="M0 0 C96.69 0 193.38 0 293 0 C293 56.76 293 113.52 293 172 C196.31 172 99.62 172 0 172 C0 115.24 0 58.48 0 0 Z " fill="#224FA2" transform="translate(0,0)"/>
<path d="M0 0 C11.7201748 3.98984674 21.94874855 17.09760704 28.22265625 27.40625 C29 29 29 29 29 31 C29.98097656 30.95359375 30.96195312 30.9071875 31.97265625 30.859375 C50.2942398 30.259643 66.43766553 35.48173417 80.46875 47.59765625 C91.92656708 58.47197338 99.65407293 72.48955623 100.3359375 88.41796875 C100.66109133 109.09100058 96.55700731 124.98126919 81.85546875 140.39453125 C70.92560677 150.36746961 56.13036621 158.13685818 41.07084656 158.12025452 C40.10475967 158.12162918 39.13867279 158.12300385 38.14331055 158.12442017 C37.09530273 158.12082489 36.04729492 158.11722961 34.9675293 158.11352539 C33.29857353 158.11374443 33.29857353 158.11374443 31.59590149 158.1139679 C27.92198734 158.1132718 24.24812403 158.1054935 20.57421875 158.09765625 C18.02545703 158.095791 15.47669495 158.0943676 12.92793274 158.09336853 C6.90737464 158.08994182 0.88683833 158.08206204 -5.13371104 158.07201904 C-11.98980042 158.06083118 -18.84589067 158.05534072 -25.70198691 158.05032361 C-39.80133468 158.0398787 -53.90066634 158.02229593 -68 158 C-67.31923453 153.54152313 -66.27819028 149.91323021 -64.4375 145.78515625 C-64.17483337 145.19041504 -63.91216675 144.59567383 -63.64154053 143.98291016 C-62.76720464 142.0066359 -61.8834731 140.03470437 -61 138.0625 C-60.37063238 136.64349653 -59.7420713 135.22413511 -59.11425781 133.80444336 C-58.11713689 131.55007284 -57.11941878 129.29598279 -56.11920166 127.04298401 C-52.64173476 119.20925222 -49.22252233 111.35051322 -45.80566406 103.49020386 C-38.83160503 87.45200514 -31.80868877 71.43541656 -24.76879883 55.42602539 C-20.86807992 46.55226183 -16.98265422 37.67213138 -13.12109375 28.78125 C-12.5273143 27.41498474 -12.5273143 27.41498474 -11.92153931 26.02111816 C-10.01698189 21.63840725 -8.11483736 17.25467779 -6.21679688 12.86914062 C-5.53915876 11.30855195 -4.86142958 9.74800281 -4.18359375 8.1875 C-3.71934242 7.1110321 -3.71934242 7.1110321 -3.24571228 6.01281738 C-1.1135237 1.1135237 -1.1135237 1.1135237 0 0 Z " fill="#224FA2" transform="translate(192,14)"/>
<path d="M0 0 C45.54 0 91.08 0 138 0 C138 56.76 138 113.52 138 172 C119.85 172 101.7 172 83 172 C83 171.67 83 171.34 83 171 C84.08796875 170.72027344 85.1759375 170.44054687 86.296875 170.15234375 C104.90957943 165.16288947 119.07776588 156.28818624 129.0859375 139.51171875 C134.58558174 129.42155514 136.191871 120.21015592 136.25 108.875 C136.270625 107.89273438 136.29125 106.91046875 136.3125 105.8984375 C136.39664831 89.91025905 129.94814673 75.57375512 119 64 C107.29632441 52.92895552 91.83160922 45.8346856 75.6027832 45.93505859 C66.98801795 45.94506064 66.98801795 45.94506064 63.75390625 42.8515625 C62.0625 40.0625 62.0625 40.0625 60.55859375 37.046875 C56.39701995 28.91146757 48.342477 21.37699559 41 16 C39.67617033 15.63072519 38.34307944 15.29159307 37 15 C36.23837737 16.7348071 35.476755 18.46961432 34.71513367 20.204422 C34.02130032 21.78481729 33.32746268 23.36521069 32.63362122 24.94560242 C30.64440174 29.47654957 28.65526432 34.00753272 26.66625977 38.53857422 C22.57727604 47.85323951 18.48737261 57.16749779 14.39453125 66.48046875 C6.28361628 84.93858876 -1.80750771 103.40506987 -9.85180664 121.89233398 C-13.2668636 129.73937553 -16.69162037 137.58187482 -20.140625 145.4140625 C-20.79855007 146.910054 -21.45642871 148.40606591 -22.11425781 149.90209961 C-23.33941605 152.68826436 -24.5684941 155.47265328 -25.79980469 158.25610352 C-26.34586808 159.49748605 -26.89177591 160.73893702 -27.4375 161.98046875 C-27.91058594 163.05192139 -28.38367188 164.12337402 -28.87109375 165.22729492 C-30.13811814 168.15239854 -30.13811814 168.15239854 -31 172 C-37.93 172 -44.86 172 -52 172 C-50.515 170.02 -50.515 170.02 -49 168 C-48.11483557 166.18656417 -47.28540027 164.34544597 -46.49609375 162.48828125 C-45.77063354 160.79578247 -45.77063354 160.79578247 -45.03051758 159.0690918 C-44.77267487 158.46092621 -44.51483215 157.85276062 -44.24917603 157.22616577 C-42.8156459 153.84637205 -41.36307922 150.47473812 -39.9140625 147.1015625 C-39.60223526 146.37424423 -39.29040802 145.64692596 -38.96913147 144.89756775 C-35.13800042 135.97037848 -31.22364914 127.07984255 -27.3125 118.1875 C-26.54412701 116.43923643 -25.77581699 114.69094518 -25.00756836 112.94262695 C-23.44887563 109.39569789 -21.8898372 105.84892107 -20.33056641 102.30224609 C-18.04564718 97.10452276 -15.76273381 91.90592045 -13.48046875 86.70703125 C-13.10977264 85.86271545 -12.73907654 85.01839966 -12.35714722 84.14849854 C-10.4984432 79.91472483 -8.64058671 75.6805822 -6.78417969 71.44580078 C-3.28390609 63.4634965 0.22444078 55.48501905 3.75961304 47.51809692 C5.42224599 43.76989843 7.08054736 40.0197907 8.73852539 36.26953125 C9.52738089 34.48846226 10.31833967 32.7083231 11.11157227 30.92919922 C16.78101933 18.23351959 16.78101933 18.23351959 21 5 C20.195625 4.87625 19.39125 4.7525 18.5625 4.625 C15.07410439 4.01300077 11.64408885 3.25940424 8.19140625 2.4765625 C5.47532778 1.88590016 2.74684655 1.42259178 0 1 C0 0.67 0 0.34 0 0 Z " fill="#FCFDFE" transform="translate(155,0)"/>
<path d="M0 0 C45.21 0 90.42 0 137 0 C137 0.33 137 0.66 137 1 C135.89785156 1.1959375 134.79570312 1.391875 133.66015625 1.59375 C110.02838067 6.11680408 91.05922182 17.30261594 76.81640625 37.0234375 C71.46773877 45.21326862 68.12558285 53.77716272 65 63 C64.43716309 63.00410889 63.87432617 63.00821777 63.29443359 63.01245117 C44.30703423 63.2542919 28.47831694 66.33594978 14.5859375 80.453125 C7.09016917 89.3806693 3.39220009 98.68080931 1 110 C0.67 110 0.34 110 0 110 C0 73.7 0 37.4 0 0 Z " fill="#FEFEFE" transform="translate(0,0)"/>
<path d="M0 0 C14.51713699 6.78309768 28.86800853 13.87287736 43.1875 21.0625 C45.3169622 22.12974704 47.44651899 23.19680538 49.57617188 24.26367188 C54.71853666 26.84028229 59.85962965 29.41941311 65 32 C65 35.3 65 38.6 65 42 C59.26137157 44.54270512 53.52199105 47.08370314 47.78198242 49.62329102 C45.83973028 50.48287692 43.89766523 51.34288572 41.95581055 52.20336914 C31.37029177 56.89371179 20.77297365 61.55458383 10.13671875 66.12890625 C9.23178177 66.51924545 8.32684479 66.90958466 7.39448547 67.31175232 C6.15447029 67.84301476 6.15447029 67.84301476 4.8894043 68.38500977 C3.79537544 68.85451805 3.79537544 68.85451805 2.679245 69.33351135 C1 70 1 70 0 70 C0 64.72 0 59.44 0 54 C1.16047852 53.52578613 2.32095703 53.05157227 3.51660156 52.56298828 C7.8259993 50.80153255 12.13455959 49.03803644 16.44287109 47.27392578 C18.30690125 46.51099954 20.17115742 45.74862525 22.03564453 44.98681641 C24.71706944 43.89110362 27.3976727 42.79340209 30.078125 41.6953125 C30.91055725 41.3556546 31.7429895 41.0159967 32.60064697 40.66604614 C33.77140778 40.18577469 33.77140778 40.18577469 34.96582031 39.69580078 C35.64976868 39.41600372 36.33371704 39.13620667 37.03839111 38.84793091 C39.06684986 37.97110328 41.03290386 37.00614732 43 36 C41.83952148 35.4652002 40.67904297 34.93040039 39.48339844 34.37939453 C35.17434402 32.39338667 30.86567827 30.40653686 26.55712891 28.41943359 C24.69297695 27.559829 22.82871994 26.70045218 20.96435547 25.84130859 C18.28325127 24.60574379 15.60252702 23.36935797 12.921875 22.1328125 C12.08944275 21.74940704 11.2570105 21.36600159 10.39935303 20.97097778 C9.61884583 20.61075531 8.83833862 20.25053284 8.03417969 19.87939453 C7.35023132 19.56406769 6.66628296 19.24874084 5.96160889 18.92385864 C3.95923504 17.98080093 1.97966843 16.98983422 0 16 C0 10.72 0 5.44 0 0 Z " fill="#FAFBFC" transform="translate(179,67)"/>
<path d="M0 0 C0 4.95 0 9.9 0 15 C-13.82734365 22.04923402 -27.88457678 28.54982034 -42 35 C-36.60746908 37.77057199 -31.2003342 40.23013137 -25.5625 42.453125 C-24.41418701 42.91075226 -24.41418701 42.91075226 -23.24267578 43.37762451 C-20.82974156 44.33836865 -18.4149218 45.29426441 -16 46.25 C-14.35013254 46.90592845 -12.70039175 47.56217559 -11.05078125 48.21875 C-7.03552939 49.81677989 -3.01775584 51.40821961 1 53 C1 58.28 1 63.56 1 69 C-6.44889296 66.73294562 -13.43950443 63.66171626 -20.50387573 60.41680908 C-23.91638677 58.84946122 -27.33555665 57.29674943 -30.75390625 55.7421875 C-31.44267349 55.42849213 -32.13144073 55.11479675 -32.84107971 54.79159546 C-39.68207347 51.67990129 -46.5547904 48.64323741 -53.4375 45.625 C-54.50871094 45.15513672 -55.57992187 44.68527344 -56.68359375 44.20117188 C-59.12183002 43.13282234 -61.56081859 42.06618991 -64 41 C-64 37.7 -64 34.4 -64 31 C-53.01759773 25.09231336 -41.94394741 19.46159875 -30.66894531 14.13232422 C-23.08783132 10.5437598 -15.58267311 6.8198405 -8.11743164 2.99609375 C-7.34004639 2.60164063 -6.56266113 2.2071875 -5.76171875 1.80078125 C-5.08069092 1.45184814 -4.39966309 1.10291504 -3.69799805 0.7434082 C-2 0 -2 0 0 0 Z " fill="#F9FAFC" transform="translate(109,68)"/>
<path d="M0 0 C0.33 0 0.66 0 1 0 C1.14695313 0.72703125 1.29390625 1.4540625 1.4453125 2.203125 C4.6123319 16.4001085 10.94632192 29.12244268 23.40625 37.359375 C29.25277962 40.95490279 35.21158035 43.80553654 41.9140625 45.4296875 C44 46 44 46 48 48 C32.16 48 16.32 48 0 48 C0 32.16 0 16.32 0 0 Z " fill="#FBFCFD" transform="translate(0,124)"/>
</svg>
