<?xml version="1.0" encoding="UTF-8"?>
<svg version="1.1" xmlns="http://www.w3.org/2000/svg" width="200" height="200">
<path d="M0 0 C66 0 132 0 200 0 C200 66 200 132 200 200 C134 200 68 200 0 200 C0 134 0 68 0 0 Z " fill="#FEFEFE" transform="translate(0,0)"/>
<path d="M0 0 C1.85415563 0.01509423 3.70832334 0.02877414 5.5625 0.04101562 C10.04197278 0.07359965 14.52084729 0.1251118 19 0.1875 C18.61312881 6.32933778 18.20733924 11.8675073 15.6875 17.5625 C15.27886719 18.51898438 14.87023437 19.47546875 14.44921875 20.4609375 C11.82680701 25.39474718 8.95251672 28.57022782 4.125 31.375 C2.89136719 32.10783203 2.89136719 32.10783203 1.6328125 32.85546875 C-4.43367201 35.92471388 -9.58654503 36.43358507 -16.25 36.5625 C-26.32318948 36.93561671 -34.81356392 38.49968466 -42 46.1875 C-45.56734838 52.23648204 -48.11197475 57.67490418 -48.15771484 64.75366211 C-48.17310806 66.46706032 -48.17310806 66.46706032 -48.18881226 68.21507263 C-48.19611359 69.4524971 -48.20341492 70.68992157 -48.2109375 71.96484375 C-48.23182677 73.91658932 -48.25273381 75.86833486 -48.27463722 77.82006931 C-48.32760713 82.62647619 -48.3717621 87.43289351 -48.40136719 92.23950195 C-48.41839924 94.93296735 -48.44322934 97.62615618 -48.47622681 100.31947327 C-48.50688798 102.84933742 -48.52654447 105.37936763 -48.53329468 107.90940857 C-48.68555476 118.66855032 -49.87846611 131.63297956 -57.6015625 139.90234375 C-64.83343674 146.41740226 -71.42311652 148.24350517 -81 148.1875 C-81.06975801 135.76482635 -81.12294176 123.34219992 -81.15543652 110.9193697 C-81.17103868 105.14987034 -81.19217674 99.38050579 -81.22631836 93.61108398 C-81.25910696 88.0348956 -81.27689391 82.45883623 -81.28463173 76.88255882 C-81.29014041 74.76368367 -81.30089674 72.64481493 -81.31719017 70.52599525 C-81.46421923 50.59906684 -79.80558896 34.59286951 -65.39453125 19.46484375 C-59.40867373 13.77193195 -52.83246416 9.877236 -45.375 6.4375 C-44.49026001 6.01464722 -44.49026001 6.01464722 -43.58764648 5.58325195 C-29.73973434 -0.44987641 -14.78205813 -0.21227847 0 0 Z " fill="#5642A2" transform="translate(161,25.8125)"/>
<path d="M0 0 C1.85415563 0.01509423 3.70832334 0.02877414 5.5625 0.04101562 C10.04197278 0.07359965 14.52084729 0.1251118 19 0.1875 C18.61312881 6.32933778 18.20733924 11.8675073 15.6875 17.5625 C15.27886719 18.51898438 14.87023437 19.47546875 14.44921875 20.4609375 C11.82680701 25.39474718 8.95251672 28.57022782 4.125 31.375 C2.89136719 32.10783203 2.89136719 32.10783203 1.6328125 32.85546875 C-5.32907038 36.377727 -11.51302925 36.49026289 -19.1875 36.625 C-37.88153653 37.16180214 -58.4062544 37.79104546 -72.49609375 51.66015625 C-78.01634389 57.80286783 -79.44736936 63.74822776 -79.43237305 71.69311523 C-79.4425647 72.51343735 -79.45275635 73.33375946 -79.46325684 74.17893982 C-79.49325166 76.86806183 -79.50263194 79.55682683 -79.51171875 82.24609375 C-79.52857548 84.11940177 -79.54672705 85.99269854 -79.56611633 87.86598206 C-79.61351454 92.77973925 -79.64338969 97.69345084 -79.66955566 102.60736084 C-79.69941262 107.62830609 -79.74592529 112.64909441 -79.79101562 117.66992188 C-79.87693289 127.50903232 -79.9443296 137.34817516 -80 147.1875 C-78.02 147.1875 -76.04 147.1875 -74 147.1875 C-74 147.5175 -74 147.8475 -74 148.1875 C-76.31 148.1875 -78.62 148.1875 -81 148.1875 C-81.06975801 135.76482635 -81.12294176 123.34219992 -81.15543652 110.9193697 C-81.17103868 105.14987034 -81.19217674 99.38050579 -81.22631836 93.61108398 C-81.25910696 88.0348956 -81.27689391 82.45883623 -81.28463173 76.88255882 C-81.29014041 74.76368367 -81.30089674 72.64481493 -81.31719017 70.52599525 C-81.46421923 50.59906684 -79.80558896 34.59286951 -65.39453125 19.46484375 C-59.40867373 13.77193195 -52.83246416 9.877236 -45.375 6.4375 C-44.49026001 6.01464722 -44.49026001 6.01464722 -43.58764648 5.58325195 C-29.73973434 -0.44987641 -14.78205813 -0.21227847 0 0 Z " fill="#6E54C9" transform="translate(161,25.8125)"/>
<path d="M0 0 C24.75 0 49.5 0 75 0 C71 2 71 2 69.0703125 2.89453125 C59.06589412 7.61549173 54.02883518 13.93271792 49.6875 24.0625 C49.08503051 26.63668782 48.73474219 29.06076821 48.45703125 31.68359375 C48.37042236 32.4923999 48.28381348 33.30120605 48.19458008 34.13452148 C48.13036865 34.75012939 48.06615723 35.3657373 48 36 C23.69251245 37.26533905 23.69251245 37.26533905 14 30 C13.32066406 29.49339844 12.64132813 28.98679687 11.94140625 28.46484375 C3.14239186 20.76334083 1.02473968 11.27213653 0 0 Z " fill="#1F1F1F" transform="translate(20,26)"/>
<path d="M0 0 C11.88 0 23.76 0 36 0 C31.23634568 2.38182716 26.35179843 3.98069523 21.3125 5.68359375 C18.37185502 6.85222271 16.44359381 8.05983176 14 10 C13.34 10 12.68 10 12 10 C12 10.99 12 11.98 12 13 C11.34 13 10.68 13 10 13 C10.020625 13.94875 10.04125 14.8975 10.0625 15.875 C10 19 10 19 9 21 C5.55919294 19.61502106 4.29493331 18.388419 2.8125 15 C2.48894531 14.29875 2.16539063 13.5975 1.83203125 12.875 C0.62695297 8.71097363 0.43133834 4.31338342 0 0 Z " fill="#141414" transform="translate(20,27)"/>
<path d="M0 0 C0.33 0 0.66 0 1 0 C1.07659857 7.32821898 1.12882844 14.65633321 1.16479492 21.98486328 C1.17980232 24.4735093 1.20021464 26.96212923 1.22631836 29.45068359 C1.26305706 33.04531325 1.2798075 36.63959064 1.29296875 40.234375 C1.30845261 41.33174988 1.32393646 42.42912476 1.33988953 43.55975342 C1.34213235 54.05356588 -0.10217029 66.68500672 -7.6015625 74.71484375 C-11.27757112 78.02649028 -15.84732244 82 -21 82 C-20.67 80.35 -20.34 78.7 -20 77 C-19.34 77 -18.68 77 -18 77 C-17.87625 76.401875 -17.7525 75.80375 -17.625 75.1875 C-17 73 -17 73 -15 70 C-14.34 70 -13.68 70 -13 70 C-13 70.66 -13 71.32 -13 72 C-12.34 72 -11.68 72 -11 72 C-11 71.01 -11 70.02 -11 69 C-9.68 69 -8.36 69 -7 69 C-6.67 67.35 -6.34 65.7 -6 64 C-5.34 64 -4.68 64 -4 64 C-4 63.01 -4 62.02 -4 61 C-3.34 61 -2.68 61 -2 61 C-2.00785522 59.59923218 -2.00785522 59.59923218 -2.01586914 58.17016602 C-2.0328762 54.71687204 -2.04543302 51.26362233 -2.05493164 47.81030273 C-2.05997121 46.31355082 -2.06680287 44.81680384 -2.07543945 43.32006836 C-2.08752159 41.17300193 -2.09323191 39.02600038 -2.09765625 36.87890625 C-2.10551147 34.93866577 -2.10551147 34.93866577 -2.11352539 32.95922852 C-2 30 -2 30 -1 29 C-0.84141158 26.85613343 -0.74870702 24.70733162 -0.68359375 22.55859375 C-0.64169922 21.25341797 -0.59980469 19.94824219 -0.55664062 18.60351562 C-0.51682392 17.2148467 -0.47711175 15.82617478 -0.4375 14.4375 C-0.39432011 13.04490817 -0.350706 11.65232972 -0.30664062 10.25976562 C-0.20014124 6.83995199 -0.09813077 3.42006237 0 0 Z " fill="#8775CB" transform="translate(111,91)"/>
<path d="M0 0 C1.85415563 0.01509423 3.70832334 0.02877414 5.5625 0.04101562 C10.04197278 0.07359965 14.52084729 0.1251118 19 0.1875 C18.88570603 1.95905654 18.75816963 3.72976229 18.625 5.5 C18.55539063 6.48613281 18.48578125 7.47226562 18.4140625 8.48828125 C18 11.1875 18 11.1875 16 14.1875 C16 10.5575 16 6.9275 16 3.1875 C10.89542996 3.1626034 5.79089603 3.14454765 0.6862793 3.13256836 C-1.04679989 3.12756925 -2.77987493 3.12076776 -4.51293945 3.11206055 C-7.01775138 3.09979973 -9.52250708 3.09422734 -12.02734375 3.08984375 C-12.79022202 3.08468246 -13.55310028 3.07952118 -14.33909607 3.07420349 C-23.32386924 3.06387535 -23.32386924 3.06387535 -32.07432556 4.84727478 C-34 5.1875 -34 5.1875 -37 3.1875 C-24.57193294 0.26395983 -12.72977199 -0.18280652 0 0 Z " fill="#7E6BC6" transform="translate(161,25.8125)"/>
<path d="M0 0 C-3 2 -3 2 -5.26953125 3.2265625 C-11.40834639 6.60243934 -15.28754799 10.05404028 -19 16 C-21.29633824 12.55549263 -21.54016485 10.06187717 -22 6 C-21.34 6 -20.68 6 -20 6 C-19.67 4.68 -19.34 3.36 -19 2 C-16.95928485 1.66089006 -14.91737379 1.32897296 -12.875 1 C-11.73804687 0.814375 -10.60109375 0.62875 -9.4296875 0.4375 C-6.23862398 0.03043951 -3.21182209 -0.07809902 0 0 Z " fill="#403475" transform="translate(134,62)"/>
<path d="M0 0 C-2.5214229 2.5214229 -4.59657757 2.9285522 -8 4 C-9.4213836 4.46498794 -10.83805221 4.94460186 -12.25 5.4375 C-12.91515625 5.66308594 -13.5803125 5.88867188 -14.265625 6.12109375 C-16.35627124 7.00200135 -16.35627124 7.00200135 -18 10 C-18.66 10 -19.32 10 -20 10 C-20.33 11.32 -20.66 12.64 -21 14 C-21.8971875 14.1546875 -21.8971875 14.1546875 -22.8125 14.3125 C-25.28243264 15.08876455 -26.32251235 16.07088921 -28 18 C-28.33 17.34 -28.66 16.68 -29 16 C-22.71739132 8.04068225 -11.27934184 -3.67529116 0 0 Z " fill="#423086" transform="translate(113,66)"/>
<path d="M0 0 C0.66 0 1.32 0 2 0 C2.5 3.1875 2.5 3.1875 2 7 C-1.43070985 10.22650093 -5.4253658 12.03149636 -10 13 C-9.67 11.35 -9.34 9.7 -9 8 C-8.34 8 -7.68 8 -7 8 C-6.87625 7.401875 -6.7525 6.80375 -6.625 6.1875 C-6 4 -6 4 -4 1 C-3.34 1 -2.68 1 -2 1 C-2 1.66 -2 2.32 -2 3 C-1.34 3 -0.68 3 0 3 C0 2.01 0 1.02 0 0 Z " fill="#705CC1" transform="translate(100,160)"/>
<path d="M0 0 C1.04960281 2.69716116 1.0635874 3.82184797 0.07421875 6.59375 C-0.61220703 8.03234375 -0.61220703 8.03234375 -1.3125 9.5 C-4.01303479 15.59120625 -5.21712217 21.40980457 -6 28 C-5.34 28.33 -4.68 28.66 -4 29 C-4.99 31.475 -4.99 31.475 -6 34 C-6.33 34 -6.66 34 -7 34 C-7.40054043 21.21237578 -7.00214062 11.10684374 0 0 Z " fill="#6C57B4" transform="translate(88,55)"/>
<path d="M0 0 C2.64 0 5.28 0 8 0 C7.67 0.99 7.34 1.98 7 3 C9.39591038 3.02712351 11.79150957 3.0468982 14.1875 3.0625 C14.86103516 3.07087891 15.53457031 3.07925781 16.22851562 3.08789062 C19.95434131 3.10606538 23.3788042 2.89299392 27 2 C27 2.66 27 3.32 27 4 C22.80482399 5.398392 18.70919162 5.40913355 14.3125 5.625 C13.00249023 5.70234375 13.00249023 5.70234375 11.66601562 5.78125 C6.29011666 6.05426055 1.31975303 5.8298567 -4 5 C-4 4.67 -4 4.34 -4 4 C-2.35 3.67 -0.7 3.34 1 3 C0.67 2.01 0.34 1.02 0 0 Z " fill="#705BC1" transform="translate(130,57)"/>
<path d="M0 0 C0.66 0.33 1.32 0.66 2 1 C-0.14766073 4.22149109 -1.00403846 4.69298156 -4.4375 6.125 C-5.21996094 6.45757812 -6.00242187 6.79015625 -6.80859375 7.1328125 C-8.51856765 7.80948666 -10.25537718 8.41845906 -12 9 C-12 9.99 -12 10.98 -12 12 C-13.98 12.66 -15.96 13.32 -18 14 C-13.41575739 7.51882942 -7.05341578 3.52670789 0 0 Z " fill="#705CB7" transform="translate(112,34)"/>
<path d="M0 0 C-2.38457948 1.58971965 -4.6304124 2.86741593 -7.1875 4.125 C-7.90292969 4.47820312 -8.61835937 4.83140625 -9.35546875 5.1953125 C-9.89816406 5.46085937 -10.44085938 5.72640625 -11 6 C-11.33 5.34 -11.66 4.68 -12 4 C-12.99 3.67 -13.98 3.34 -15 3 C-15 2.34 -15 1.68 -15 1 C-9.9752761 0.37470103 -5.07471573 -0.13012092 0 0 Z " fill="#45377D" transform="translate(134,62)"/>
<path d="M0 0 C0.66 0 1.32 0 2 0 C2 2.31 2 4.62 2 7 C1.01 7.495 1.01 7.495 0 8 C-0.99 7.67 -1.98 7.34 -3 7 C-3.33 5.02 -3.66 3.04 -4 1 C-3.34 1 -2.68 1 -2 1 C-2 1.66 -2 2.32 -2 3 C-1.34 3 -0.68 3 0 3 C0 2.01 0 1.02 0 0 Z " fill="#6F57D0" transform="translate(100,160)"/>
<path d="M0 0 C2.31 0.33 4.62 0.66 7 1 C4.8125 3.5625 4.8125 3.5625 2 6 C-0.8125 5.8125 -0.8125 5.8125 -3 5 C-2.34 4.67 -1.68 4.34 -1 4 C-0.34786708 1.97536745 -0.34786708 1.97536745 0 0 Z " fill="#3A2A76" transform="translate(115,64)"/>
<path d="M0 0 C4.7993848 0.857033 7.71368707 3.54937143 11 7 C10.67 7.99 10.34 8.98 10 10 C8.33037631 8.52417192 6.6643694 7.04425109 5 5.5625 C4.071875 4.73878906 3.14375 3.91507813 2.1875 3.06640625 C1.465625 2.38449219 0.74375 1.70257813 0 1 C0 0.67 0 0.34 0 0 Z " fill="#282828" transform="translate(27,48)"/>
<path d="M0 0 C0 0.33 0 0.66 0 1 C-0.90492188 1.09087891 -0.90492188 1.09087891 -1.828125 1.18359375 C-3.02695313 1.30927734 -3.02695313 1.30927734 -4.25 1.4375 C-5.03890625 1.51871094 -5.8278125 1.59992187 -6.640625 1.68359375 C-8.98646949 1.93046316 -8.98646949 1.93046316 -11.109375 2.66015625 C-13 3 -13 3 -16 1 C-5.62642369 -1.48063781 -5.62642369 -1.48063781 0 0 Z " fill="#7A65BD" transform="translate(140,28)"/>
<path d="M0 0 C-1.625 5.75 -1.625 5.75 -5 8 C-5.36625971 3.48279689 -5.36625971 3.48279689 -3.625 1.1875 C-2 0 -2 0 0 0 Z " fill="#715DBC" transform="translate(176,43)"/>
<path d="M0 0 C0.66 0.33 1.32 0.66 2 1 C-0.31 3.31 -2.62 5.62 -5 8 C-5.33 6.68 -5.66 5.36 -6 4 C-4.02 2.68 -2.04 1.36 0 0 Z " fill="#F1EAFC" transform="translate(168,54)"/>
</svg>
